REM DIRINDEX 1\2,1\3,1\4,1\5,1\6
REM DIRNAME folder01,folder02,folder03,folder04,folder05,folder06
TITLE ""
FILE "CD2-20.mp3" MP3
  TRACK 01 AUDIO
    TITLE "6:cjc091_1908"
    INDEX 01 00:00:00
  TRACK 02 AUDIO
    TITLE "0:"
    INDEX 01 00:02:06
  TRACK 03 AUDIO
    TITLE "2:cjc091_1909"
    INDEX 01 00:03:29
  TRACK 04 AUDIO
    TITLE "0:"
    INDEX 01 00:04:66
  TRACK 05 AUDIO
    TITLE "3:cjc091_1910"
    INDEX 01 00:05:10
  TRACK 06 AUDIO
    TITLE "0:"
    INDEX 01 00:07:09
  TRACK 07 AUDIO
    TITLE "4:cjc091_1911"
    INDEX 01 00:07:25
  TRACK 08 AUDIO
    TITLE "0:"
    INDEX 01 00:09:53
  TRACK 09 AUDIO
    TITLE "2:cjc091_1912"
    INDEX 01 00:10:66
  TRACK 10 AUDIO
    TITLE "0:"
    INDEX 01 00:12:36
  TRACK 11 AUDIO
    TITLE "3:cjc091_1913"
    INDEX 01 00:12:52
  TRACK 12 AUDIO
    TITLE "0:"
    INDEX 01 00:14:33
  TRACK 13 AUDIO
    TITLE "4:cjc091_1914"
    INDEX 01 00:14:51
  TRACK 14 AUDIO
    TITLE "0:"
    INDEX 01 00:17:18
  TRACK 15 AUDIO
    TITLE "2:cjc091_1915"
    INDEX 01 00:18:23
  TRACK 16 AUDIO
    TITLE "0:"
    INDEX 01 00:19:60
  TRACK 17 AUDIO
    TITLE "3:cjc091_1916"
    INDEX 01 00:19:71
  TRACK 18 AUDIO
    TITLE "0:"
    INDEX 01 00:21:21
  TRACK 19 AUDIO
    TITLE "4:cjc091_1917"
    INDEX 01 00:21:33
  TRACK 20 AUDIO
    TITLE "0:"
    INDEX 01 00:26:09
  TRACK 21 AUDIO
    TITLE "2:cjc091_1918"
    INDEX 01 00:27:18
  TRACK 22 AUDIO
    TITLE "0:"
    INDEX 01 00:28:23
  TRACK 23 AUDIO
    TITLE "3:cjc091_1919"
    INDEX 01 00:28:39
  TRACK 24 AUDIO
    TITLE "0:"
    INDEX 01 00:30:06
  TRACK 25 AUDIO
    TITLE "4:cjc091_1920"
    INDEX 01 00:30:22
  TRACK 26 AUDIO
    TITLE "0:"
    INDEX 01 00:34:02
  TRACK 27 AUDIO
    TITLE "2:cjc091_1921"
    INDEX 01 00:35:19
  TRACK 28 AUDIO
    TITLE "0:"
    INDEX 01 00:36:44
  TRACK 29 AUDIO
    TITLE "3:cjc091_1922"
    INDEX 01 00:36:60
  TRACK 30 AUDIO
    TITLE "0:"
    INDEX 01 00:38:37
  TRACK 31 AUDIO
    TITLE "4:cjc091_1923"
    INDEX 01 00:38:57
  TRACK 32 AUDIO
    TITLE "0:"
    INDEX 01 00:41:30
  TRACK 33 AUDIO
    TITLE "2:cjc091_1924"
    INDEX 01 00:42:39
  TRACK 34 AUDIO
    TITLE "0:"
    INDEX 01 00:43:48
  TRACK 35 AUDIO
    TITLE "3:cjc091_1925"
    INDEX 01 00:43:64
  TRACK 36 AUDIO
    TITLE "0:"
    INDEX 01 00:45:39
  TRACK 37 AUDIO
    TITLE "4:cjc091_1926"
    INDEX 01 00:45:61
  TRACK 38 AUDIO
    TITLE "0:"
    INDEX 01 00:49:51
  TRACK 39 AUDIO
    TITLE "2:cjc091_1927"
    INDEX 01 00:50:66
  TRACK 40 AUDIO
    TITLE "0:"
    INDEX 01 00:52:00
  TRACK 41 AUDIO
    TITLE "3:cjc091_1928"
    INDEX 01 00:52:06
  TRACK 42 AUDIO
    TITLE "0:"
    INDEX 01 00:53:09
  TRACK 43 AUDIO
    TITLE "4:cjc091_1929"
    INDEX 01 00:53:31
  TRACK 44 AUDIO
    TITLE "0:"
    INDEX 01 00:55:38
  TRACK 45 AUDIO
    TITLE "2:cjc091_1930"
    INDEX 01 00:56:51
  TRACK 46 AUDIO
    TITLE "0:"
    INDEX 01 00:57:62
  TRACK 47 AUDIO
    TITLE "3:cjc091_1931"
    INDEX 01 00:58:05
  TRACK 48 AUDIO
    TITLE "0:"
    INDEX 01 00:59:41
  TRACK 49 AUDIO
    TITLE "4:cjc091_1932"
    INDEX 01 00:59:65
  TRACK 50 AUDIO
    TITLE "0:"
    INDEX 01 01:04:54
  TRACK 51 AUDIO
    TITLE "2:cjc091_1933"
    INDEX 01 01:05:64
  TRACK 52 AUDIO
    TITLE "0:"
    INDEX 01 01:07:00
  TRACK 53 AUDIO
    TITLE "3:cjc091_1934"
    INDEX 01 01:07:21
  TRACK 54 AUDIO
    TITLE "0:"
    INDEX 01 01:09:12
  TRACK 55 AUDIO
    TITLE "4:cjc091_1935"
    INDEX 01 01:09:38
  TRACK 56 AUDIO
    TITLE "0:"
    INDEX 01 01:13:63
  TRACK 57 AUDIO
    TITLE "2:cjc091_1936"
    INDEX 01 01:14:74
  TRACK 58 AUDIO
    TITLE "0:"
    INDEX 01 01:16:32
  TRACK 59 AUDIO
    TITLE "3:cjc091_1937"
    INDEX 01 01:16:46
  TRACK 60 AUDIO
    TITLE "0:"
    INDEX 01 01:18:29
  TRACK 61 AUDIO
    TITLE "4:cjc091_1938"
    INDEX 01 01:18:56
  TRACK 62 AUDIO
    TITLE "0:"
    INDEX 01 01:22:15
  TRACK 63 AUDIO
    TITLE "2:cjc091_1939"
    INDEX 01 01:23:30
  TRACK 64 AUDIO
    TITLE "0:"
    INDEX 01 01:25:29
  TRACK 65 AUDIO
    TITLE "3:cjc091_1940"
    INDEX 01 01:25:51
  TRACK 66 AUDIO
    TITLE "0:"
    INDEX 01 01:27:67
  TRACK 67 AUDIO
    TITLE "4:cjc091_1941"
    INDEX 01 01:28:14
  TRACK 68 AUDIO
    TITLE "0:"
    INDEX 01 01:31:63
  TRACK 69 AUDIO
    TITLE "2:cjc091_1942"
    INDEX 01 01:32:74
  TRACK 70 AUDIO
    TITLE "0:"
    INDEX 01 01:34:42
  TRACK 71 AUDIO
    TITLE "3:cjc091_1943"
    INDEX 01 01:34:69
  TRACK 72 AUDIO
    TITLE "0:"
    INDEX 01 01:37:54
  TRACK 73 AUDIO
    TITLE "4:cjc091_1944"
    INDEX 01 01:38:00
  TRACK 74 AUDIO
    TITLE "0:"
    INDEX 01 01:41:03
  TRACK 75 AUDIO
    TITLE "2:cjc091_1945"
    INDEX 01 01:42:16
  TRACK 76 AUDIO
    TITLE "0:"
    INDEX 01 01:43:33
  TRACK 77 AUDIO
    TITLE "3:cjc091_1946"
    INDEX 01 01:43:54
  TRACK 78 AUDIO
    TITLE "0:"
    INDEX 01 01:45:30
  TRACK 79 AUDIO
    TITLE "4:cjc091_1947"
    INDEX 01 01:45:53
  TRACK 80 AUDIO
    TITLE "0:"
    INDEX 01 01:50:11
  TRACK 81 AUDIO
    TITLE "2:cjc091_1948"
    INDEX 01 01:51:25
  TRACK 82 AUDIO
    TITLE "0:"
    INDEX 01 01:53:00
  TRACK 83 AUDIO
    TITLE "3:cjc091_1949"
    INDEX 01 01:53:23
  TRACK 84 AUDIO
    TITLE "0:"
    INDEX 01 01:54:66
  TRACK 85 AUDIO
    TITLE "4:cjc091_1950"
    INDEX 01 01:55:11
  TRACK 86 AUDIO
    TITLE "0:"
    INDEX 01 01:58:60
  TRACK 87 AUDIO
    TITLE "2:cjc091_1951"
    INDEX 01 01:59:73
  TRACK 88 AUDIO
    TITLE "0:"
    INDEX 01 02:02:32
  TRACK 89 AUDIO
    TITLE "3:cjc091_1952"
    INDEX 01 02:02:48
  TRACK 90 AUDIO
    TITLE "0:"
    INDEX 01 02:04:29
  TRACK 91 AUDIO
    TITLE "4:cjc091_1953"
    INDEX 01 02:04:51
  TRACK 92 AUDIO
    TITLE "0:"
    INDEX 01 02:10:02
